# xmcd
#
# Track frame offsets:
#	150
#	14489
#	25406
#	40740
#	57874
#	77345
#	90758
#	108894
#	120017
#	134770
#	147971
#	160116
#	177343
#	189401
#	201916
#	222805
#	237897
#	252965
#	261505
#	275966
#	289137
#	301331
#	317210
#	331392
#	341804
#
# Disc length: 4760 seconds
#
# Revision: 1
# Processed by: cddbd v1.5.2PL0 Copyright (c) Steve Scherf et al.
# Submitted via: EZCDAudioConverter 7.0.6.1
#
DISCID=6b129619
DTITLE=Harmony In My Head 1/3
DYEAR=2018
DGENRE=
TTITLE0=Buzzcocks - Harmony In My Head
TTITLE1=Elvis Costello and The Attractions - You Belong To Me
TTITLE2=The Distractions - Time Goes By So Slow
TTITLE3=Squeeze - Take Me I'm Yours
TTITLE4=Any Trouble - Trouble With Love
TTITLE5=Rich Kids - Rich Kids
TTITLE6=The Records - Teenarama
TTITLE7=Nick Lowe - Born A Woman
TTITLE8=Yachts - Suffice To Say
TTITLE9=The Boys - First Time [Alternate Version]
TTITLE10=The Monochrome Set - He's Frank (Slight Return)
TTITLE11=Bram Tchaikovsky - Sarah Smiles
TTITLE12=The Pleasers - You Know What I'm Thinking Girl
TTITLE13=Squire - Does Stephanie Know?
TTITLE14=The Tights - Howard Hughes
TTITLE15=Salford Jets - She's Gonna Break Your Heart
TTITLE16=The Trend - Teenage Crush
TTITLE17=The Donkeys - Strike Talks
TTITLE18=The 45's - Couldn't Believe A Word
TTITLE19=Bleeding Hearts - This Is The Way... OK
TTITLE20=The Name - (You're Gonna) Lose That Girl
TTITLE21=The Drones - Can't See
TTITLE22=Venigmas - Turn The Lights Out
TTITLE23=UXB - Crazy Today
TTITLE24=The Barracudas - (I Wish It Could Be) 1965 Again
EXTD=
EXTT0=
EXTT1=
EXTT2=
EXTT3=
EXTT4=
EXTT5=
EXTT6=
EXTT7=
EXTT8=
EXTT9=
EXTT10=
EXTT11=
EXTT12=
EXTT13=
EXTT14=
EXTT15=
EXTT16=
EXTT17=
EXTT18=
EXTT19=
EXTT20=
EXTT21=
EXTT22=
EXTT23=
EXTT24=
PLAYORDER=
